# xmcd CD database file
#
# Track frame offsets:
#	150
#	7562
#	24316
#	44571
#	50205
#	68739
#	86936
#	98137
#	109698
#	129088
#	147764
#	165219
#	177522
#	191789
#	201555
#
# Disc length: 2992 seconds
#
# Revision: 0
# Processed by: cddbd v1.5.1PL2 Copyright (c) Steve Scherf et al.
# Submitted via: CDex 1.51
#
DISCID=c90bae0f
DTITLE=Esther Lee - fifty eight now nine
DYEAR=2001
DGENRE=Country
TTITLE0=prologue
TTITLE1=calico waltz
TTITLE2=lamppost
TTITLE3=backwoods
TTITLE4=call to worship
TTITLE5=no wings or a barrel
TTITLE6=daguerreotype
TTITLE7=christmas eve ballad
TTITLE8=one to be returned by
TTITLE9=tempted by kings
TTITLE10=tone-deaf heifer
TTITLE11=neskowin
TTITLE12=at the amargose
TTITLE13=christian crank
TTITLE14=epilogue
EXTD=YEAR: 2001
EXTT0=
EXTT1=
EXTT2=
EXTT3=
EXTT4=
EXTT5=
EXTT6=
EXTT7=
EXTT8=
EXTT9=
EXTT10=
EXTT11=
EXTT12=
EXTT13=
EXTT14=
PLAYORDER=
